<svg t="1722403960077" class="icon" viewBox="0 0 1024 1024" version="1.1" xmlns="http://www.w3.org/2000/svg" p-id="1490" width="128" height="128"><path d="M179 726.39a80.1 80.1 0 0 1-28.7-11.16c-8.22-5.21-11.79-14.58-6.72-24.31 5.68-10.86 10.4-23.19 18.88-31.45 20.93-20.56 43.42-39.6 66.09-58.24 4.48-3.71 12.67-2.88 19.14-4.15-1.93 7-2.4 14.94-6.16 20.72-5.43 8.37-14 14.66-19.94 22.73-11 14.92-4.11 30.39 14.51 30.56 16.8 0.15 33.59-3 50.43-4.42 10-0.81 10.73-5.84 7.79-14.11-5.84-16.37-13.82-32.6-16-49.51-6.32-49.12-9.13-97.74 8.45-146.53 16.8-46.6 40.74-87.54 77-120.39C403 300.51 448.19 274.44 502 267.89c27.2-3.31 54.93-6.62 82.11-4.95 36.6 2.23 71 14.49 104.16 31.55 57.14 29.4 97.86 73.27 123.88 131.3 5 11.14 11.55 13.15 20.07 6 12.61-10.5 24.51-22 36.25-33.48 13.86-13.59 1.94-29.18-15.44-31.86-9.59-1.06-38.92-5.28-44.58-8.06 4.65-4.14 9-11.47 14-11.92 34.65-3 69.45-6.58 104.14-6.16 30.39 0.39 43.3 29.21 24.27 53-25.68 32.05-56.48 58.93-90.1 82.81-73.53 52.27-153.68 92.94-235.44 129.51-73.08 32.7-149.12 59.27-225.14 84.65-47.19 15.76-96.63 25-145.39 35.68-13.19 2.91-64.6 2.33-75.79 0.43zM840.37 554.17c-3 19.77-4.28 36.1-8.15 51.78-12.63 51.27-36 97.49-72.69 135.49-40.59 42-90.53 69.19-148.15 78.85-30.51 5.11-62 4.5-93.1 5.82-5.71 0.24-11.68-2.27-17.28-4.22-29.78-10.4-34.06-28.11-13.36-51.56 36.05-40.87 80.9-69.77 127-97.86C681.48 631.68 750.8 595.76 821 561.35c4.69-2.35 9.84-3.7 19.37-7.18z" fill="#E8F0FA" p-id="1491"></path><path d="M102 661.77a80 80 0 0 1-28.7-11.16c-8.22-5.2-11.79-14.58-6.71-24.31 5.67-10.86 10.39-23.19 18.87-31.45 20.93-20.55 43.42-39.6 66.09-58.24 4.48-3.7 12.67-2.88 19.14-4.15-1.93 7-2.4 14.94-6.15 20.72-5.44 8.37-14 14.66-20 22.73-11 14.92-4.11 30.4 14.51 30.56 16.8 0.15 33.6-3 50.43-4.42 10.05-0.8 10.73-5.84 7.79-14.1-5.84-16.37-13.82-32.61-16-49.52-6.33-49.12-9.13-97.74 8.44-146.53 16.8-46.6 40.74-87.53 77-120.39C326 235.9 371.19 209.82 425 203.27c27.19-3.31 54.92-6.62 82.1-5 36.6 2.23 71 14.49 104.16 31.55 57.14 29.41 97.86 73.27 123.88 131.3 5 11.14 11.55 13.15 20.07 6.05 12.61-10.51 24.52-22 36.25-33.48 13.86-13.6 1.94-29.19-15.43-31.87-9.6-1.06-38.93-5.28-44.59-8.05 4.65-4.15 9-11.48 14-11.93 34.65-3 69.45-6.58 104.14-6.15 30.39 0.39 43.3 29.2 24.27 53-25.68 32.05-56.48 58.93-90.1 82.81-73.52 52.27-153.67 93-235.44 129.52-73.08 32.69-149.12 59.26-225.14 84.65-47.19 15.75-96.63 25-145.38 35.67-13.2 2.91-64.61 2.33-75.79 0.43z" fill="#343399" p-id="1492"></path><path d="M763.36 489.55c-3 19.77-4.28 36.1-8.15 51.78-12.63 51.27-36 97.49-72.69 135.49-40.59 42-90.53 69.19-148.15 78.85-30.51 5.11-62 4.5-93.1 5.82-5.71 0.24-11.68-2.27-17.28-4.22-29.77-10.4-34.06-28.11-13.35-51.56 36-40.87 80.89-69.77 127-97.86C604.47 567.06 673.8 531.14 744 496.73c4.69-2.34 9.84-3.7 19.37-7.18z" fill="#F59D0D" p-id="1493"></path></svg>
